<?xml version="1.0" standalone="no"?>
<!DOCTYPE svg PUBLIC "-//W3C//DTD SVG 20010904//EN"
 "http://www.w3.org/TR/2001/REC-SVG-20010904/DTD/svg10.dtd">
<svg version="1.0" xmlns="http://www.w3.org/2000/svg"
 width="1500.000000pt" height="1500.000000pt" viewBox="0 0 1500.000000 1500.000000"
 preserveAspectRatio="xMidYMid meet">
<metadata>
Created by potrace 1.11, written by Peter Selinger 2001-2013
</metadata>
<g transform="translate(0.000000,1500.000000) scale(0.100000,-0.100000)"
fill="#000000" stroke="none">
<path d="M7443 14403 c-17 -10 -211 -169 -430 -354 -341 -287 -3579 -3010
-5723 -4812 -525 -441 -669 -567 -683 -597 -16 -37 -17 -238 -17 -4011 0
-3839 1 -3974 19 -4009 10 -19 33 -44 52 -55 34 -20 57 -20 4209 -25 l4175 -5
95 -74 c221 -171 475 -287 745 -341 139 -28 393 -38 532 -20 303 38 601 162
866 361 l105 79 1469 2 c1448 3 1468 3 1502 23 18 11 42 36 52 55 19 34 19
146 17 4021 l-3 3986 -25 35 c-14 20 -81 82 -150 139 -69 57 -350 293 -625
524 -275 231 -1053 886 -1730 1455 -1639 1378 -2322 1952 -3358 2824 -478 402
-891 749 -918 770 -60 48 -125 58 -176 29z m1849 -1815 c970 -815 2017 -1696
2328 -1957 311 -262 921 -774 1355 -1140 435 -365 874 -734 977 -820 l187
-156 0 -1952 c1 -1074 -1 -1953 -5 -1953 -3 0 -31 18 -63 39 -330 225 -869
395 -1412 446 l-66 6 -18 82 c-95 441 -307 995 -534 1392 -131 230 -369 563
-494 692 -22 24 -39 45 -36 47 2 3 88 41 191 84 312 134 671 305 706 337 45
41 59 103 35 153 -14 28 -234 210 -938 775 -1675 1344 -2092 1679 -3010 2416
-646 519 -921 734 -947 741 -26 8 -50 8 -75 0 -26 -7 -160 -108 -414 -313
-862 -691 -1408 -1130 -2877 -2309 -851 -682 -1560 -1254 -1577 -1270 -26 -24
-30 -36 -30 -81 0 -78 28 -112 170 -206 167 -110 270 -168 490 -276 285 -140
558 -256 870 -370 l170 -62 -3 -54 c-4 -63 -25 -184 -48 -272 -117 -453 -407
-814 -717 -893 -293 -76 -563 225 -756 841 -34 108 -46 128 -88 157 -26 17
-59 18 -478 18 -431 0 -451 -1 -483 -20 -51 -32 -68 -71 -101 -244 -73 -376
-95 -609 -95 -991 0 -572 77 -1055 254 -1584 196 -588 492 -1114 901 -1606
105 -126 412 -434 544 -547 403 -342 890 -641 1350 -826 72 -29 139 -57 150
-62 12 -5 -778 -9 -1902 -9 l-1923 -1 1 3838 0 3837 217 181 c119 100 586 491
1037 871 4468 3757 5370 4513 5381 4509 7 -3 806 -672 1776 -1488z m-1932
-3675 l0 -2176 -292 6 c-249 5 -539 22 -718 42 -565 62 -1104 167 -1607 312
l-62 18 427 635 c235 349 539 802 676 1005 137 204 421 624 630 935 209 311
483 718 609 905 126 187 252 375 280 418 28 42 52 77 54 77 2 0 3 -979 3
-2177z m1211 1726 c189 -152 517 -415 729 -585 212 -170 637 -512 945 -759
308 -248 758 -609 1000 -803 242 -194 516 -414 609 -489 l169 -136 -84 -40
c-149 -69 -469 -207 -646 -278 -335 -134 -792 -294 -803 -282 -4 5 -89 134
-188 288 -100 154 -289 447 -421 650 -132 204 -371 573 -531 820 -160 248
-416 642 -568 877 -152 235 -378 584 -502 774 -124 191 -234 360 -244 377 -22
34 -10 24 535 -414z m-660 56 c295 -458 574 -889 1019 -1575 194 -300 471
-727 615 -950 145 -223 348 -538 454 -700 105 -162 187 -298 183 -302 -10 -10
-355 -103 -570 -153 -640 -150 -1225 -233 -1894 -268 l-58 -3 0 2165 c0 1280
4 2161 9 2156 5 -6 114 -172 242 -370z m-1164 28 c-254 -376 -530 -787 -1010
-1501 -194 -288 -432 -641 -529 -785 -97 -144 -322 -478 -499 -742 -177 -264
-323 -481 -324 -483 -3 -3 -288 98 -430 153 -346 134 -723 316 -941 455 l-43
27 362 290 c199 159 535 429 747 599 212 170 626 503 920 739 294 236 614 492
710 570 96 78 405 325 685 549 281 225 521 419 534 432 14 13 27 22 29 20 2
-3 -93 -148 -211 -323z m4538 -3601 c245 -269 429 -534 596 -857 512 -992 663
-2260 409 -3457 -137 -648 -416 -1281 -750 -1703 -98 -123 -210 -244 -259
-277 -24 -17 -59 -48 -79 -70 -45 -50 -218 -166 -335 -225 -360 -180 -800
-208 -1145 -72 -242 96 -424 219 -638 433 -248 249 -436 520 -609 879 -287
593 -430 1217 -467 2032 l-12 270 -37 38 c-34 34 -41 37 -93 37 -75 0 -113
-21 -136 -73 -18 -40 -18 -59 -10 -286 13 -329 36 -557 86 -850 139 -812 439
-1521 853 -2021 l71 -85 -1063 -3 c-1162 -3 -1551 5 -1807 38 -1547 199 -2889
1142 -3576 2512 -210 419 -365 902 -438 1368 -42 270 -50 381 -50 725 0 390
21 618 84 913 l12 52 295 -2 295 -3 44 -119 c86 -234 208 -457 333 -610 151
-186 356 -296 551 -296 527 1 1026 590 1141 1345 6 44 13 81 14 83 2 2 50 -10
107 -27 182 -53 487 -128 688 -170 1594 -327 3196 -250 4875 234 246 71 696
219 860 284 55 21 105 40 110 40 6 1 42 -34 80 -77z m1588 -2347 c485 -76 899
-244 1202 -487 l65 -52 0 -1703 0 -1703 -1225 0 c-674 0 -1225 3 -1225 6 0 3
38 54 84 112 462 590 762 1347 880 2217 63 462 67 1043 11 1485 -8 63 -15 122
-15 132 0 24 30 23 223 -7z"/>
<path d="M5720 5735 c-167 -52 -234 -266 -127 -407 49 -65 124 -101 206 -101
109 1 193 53 237 148 66 141 -11 316 -160 360 -60 18 -97 18 -156 0z"/>
</g>
</svg>
