<?xml version="1.0" encoding="UTF-8" standalone="no"?>
<!DOCTYPE svg PUBLIC "-//W3C//DTD SVG 1.1//EN" "http://www.w3.org/Graphics/SVG/1.1/DTD/svg11.dtd">
<svg version="1.1" xmlns="http://www.w3.org/2000/svg" xmlns:xlink="http://www.w3.org/1999/xlink" preserveAspectRatio="xMidYMid meet" viewBox="0 0 640 640" width="300" height="300"><defs><path d="M77.68 71.82L87.9 69.49L83.75 79.39L89.39 88.83L78.88 87.48L72.15 95.65L69.8 84.91L60 80.52L69.06 75.23L69.73 64.35L77.68 71.82Z" id="bjU4Y35EE"></path><path d="M47.57 277.13L57.68 274.36L53.96 284.43L60 293.63L49.45 292.72L43.07 301.18L40.26 290.54L30.28 286.57L39.11 280.91L39.32 270L47.57 277.13Z" id="d1ba5CytGj"></path><path d="M239.99 190.8L247.78 197.82L237.28 200.11L232.79 210.15L227.87 200.77L217.31 199.95L224.76 191.86L222.72 181.32L232.25 185.7L241.55 180L239.99 190.8Z" id="a3HxD4X3wU"></path><path d="M460.65 299.53L460.12 310L451.72 303.32L441.1 306.18L445.25 296.44L439.21 287.74L450.19 288.4L457.08 280.16L459.71 290.31L470 293.91L460.65 299.53Z" id="k9btDBOUw"></path><path d="M607.26 158.54L615.21 165.38L604.77 167.92L600.51 178.05L595.37 168.79L584.79 168.22L592.06 159.96L589.78 149.46L599.4 153.62L608.57 147.71L607.26 158.54Z" id="a3PVRlrBg"></path><path d="M548.37 438.63L548.72 428.15L557.24 434.69L567.8 431.65L563.81 441.46L570 450.06L559.01 449.58L552.27 457.94L549.47 447.84L539.11 444.4L548.37 438.63Z" id="aRBhElIKh"></path><path d="M115.88 572.12L123.31 564.73L125.04 575.33L134.82 580.36L125.18 584.77L123.8 595.27L116.12 587.39L105.48 588.85L110.37 579.58L105.18 569.98L115.88 572.12Z" id="baInItkHDQ"></path><path d="M332.96 525.66L339.81 517.72L342.33 528.16L352.46 532.43L343.19 537.56L342.6 548.14L334.35 540.86L323.85 543.13L328.03 533.51L322.13 524.33L332.96 525.66Z" id="a1xsOvesq"></path><path d="M214.4 367.18L219.66 376.25L208.97 375.22L201.61 383.4L199.8 372.97L190 368.95L199.57 363.53L200.86 352.87L208.59 359.96L219.19 357.38L214.4 367.18Z" id="dbdNxG1oE"></path><path d="M488.13 595.56L494.03 586.89L497.73 596.97L508.29 600.04L499.67 606.2L500.31 616.78L491.27 610.5L481.11 613.96L484.14 603.93L477.22 595.49L488.13 595.56Z" id="a4sKio3miy"></path><path d="M414.64 59.87L425 61.46L417.5 69.15L419.27 80L410 74.87L400.73 80L402.5 69.15L395 61.46L405.37 59.87L410 50L414.64 59.87Z" id="bWZabAAAY"></path></defs><g><g><g><g><use xlink:href="#bjU4Y35EE" opacity="1" fill-opacity="0" stroke="#e7cd9d" stroke-width="3" stroke-opacity="1"></use></g></g><g><g><use xlink:href="#d1ba5CytGj" opacity="1" fill-opacity="0" stroke="#e7cd9d" stroke-width="3" stroke-opacity="1"></use></g></g><g><g><use xlink:href="#a3HxD4X3wU" opacity="1" fill-opacity="0" stroke="#e7cd9d" stroke-width="3" stroke-opacity="1"></use></g></g><g><g><use xlink:href="#k9btDBOUw" opacity="1" fill-opacity="0" stroke="#e7cd9d" stroke-width="3" stroke-opacity="1"></use></g></g><g><g><use xlink:href="#a3PVRlrBg" opacity="1" fill-opacity="0" stroke="#e7cd9d" stroke-width="3" stroke-opacity="1"></use></g></g><g><g><use xlink:href="#aRBhElIKh" opacity="1" fill-opacity="0" stroke="#e7cd9d" stroke-width="3" stroke-opacity="1"></use></g></g><g><g><use xlink:href="#baInItkHDQ" opacity="1" fill-opacity="0" stroke="#e7cd9d" stroke-width="3" stroke-opacity="1"></use></g></g><g><g><use xlink:href="#a1xsOvesq" opacity="1" fill-opacity="0" stroke="#e7cd9d" stroke-width="3" stroke-opacity="1"></use></g></g><g><g><use xlink:href="#dbdNxG1oE" opacity="1" fill-opacity="0" stroke="#e7cd9d" stroke-width="3" stroke-opacity="1"></use></g></g><g><g><use xlink:href="#a4sKio3miy" opacity="1" fill-opacity="0" stroke="#e7cd9d" stroke-width="3" stroke-opacity="1"></use></g></g><g><g><use xlink:href="#bWZabAAAY" opacity="1" fill-opacity="0" stroke="#e7cd9d" stroke-width="3" stroke-opacity="1"></use></g></g></g></g></svg>