<?xml version="1.0" encoding="UTF-8" standalone="no"?>
<!DOCTYPE svg PUBLIC "-//W3C//DTD SVG 1.1//EN" "http://www.w3.org/Graphics/SVG/1.1/DTD/svg11.dtd">
<svg version="1.1" xmlns="http://www.w3.org/2000/svg" xmlns:xlink="http://www.w3.org/1999/xlink" preserveAspectRatio="xMidYMid meet" viewBox="0 0 640 640" width="300" height="300"><defs><path d="M82.98 86.17L93.2 83.83L89.06 93.74L94.69 103.18L84.19 101.82L77.45 110L75.11 99.26L65.31 94.87L74.36 89.58L75.04 78.69L82.98 86.17Z" id="afBceAq91"></path><path d="M37.29 241.54L47.4 238.77L43.68 248.85L49.72 258.04L39.16 257.13L32.78 265.59L29.98 254.95L20 250.99L28.82 245.32L29.03 234.41L37.29 241.54Z" id="d1lycUsEgn"></path><path d="M226.69 138.27L234.47 145.29L223.98 147.59L219.49 157.63L214.57 148.25L204.01 147.43L211.46 139.34L209.42 128.79L218.95 133.17L228.25 127.47L226.69 138.27Z" id="afA6Ao6c9"></path><path d="M380.97 212.87L380.45 223.34L372.04 216.66L361.42 219.53L365.58 209.78L359.54 201.08L370.52 201.74L377.4 193.5L380.03 203.65L390.33 207.26L380.97 212.87Z" id="cYutnaWPa"></path><path d="M544.02 161.25L551.97 168.09L541.53 170.63L537.27 180.77L532.13 171.51L521.56 170.93L528.82 162.67L526.54 152.17L536.16 156.33L545.33 150.42L544.02 161.25Z" id="amNhEJfgy"></path><path d="M113.69 409.23L120 417.6L109.26 417.87L102.95 426.87L99.89 416.73L89.68 413.92L98.53 407.39L98.53 396.65L107.06 402.76L117.27 398.93L113.69 409.23Z" id="emNUpX1wS"></path><path d="M564.36 481L564.71 470.52L573.23 477.06L583.8 474.02L579.81 483.83L585.99 492.43L575 491.96L568.26 500.31L565.46 490.21L555.11 486.78L564.36 481Z" id="chicLLbQV"></path><path d="M520.51 334.17L519.83 344.64L511.52 337.83L500.86 340.54L505.16 330.86L499.25 322.07L510.22 322.89L517.23 314.75L519.7 324.94L529.94 328.7L520.51 334.17Z" id="c14DQeqzGo"></path><path d="M55.88 572.12L63.31 564.73L65.04 575.33L74.82 580.36L65.18 584.77L63.8 595.27L56.12 587.39L45.48 588.85L50.37 579.58L45.18 569.98L55.88 572.12Z" id="a5v613AYmO"></path><path d="M260.92 483.35L267.78 475.41L270.3 485.85L280.43 490.13L271.16 495.25L270.57 505.83L262.32 498.56L251.82 500.82L255.99 491.2L250.09 482.02L260.92 483.35Z" id="c18KoED2e0"></path><path d="M261.9 335.4L267.16 344.47L256.47 343.44L249.12 351.62L247.3 341.19L237.5 337.17L247.07 331.75L248.36 321.09L256.09 328.18L266.69 325.6L261.9 335.4Z" id="cyCEufog1"></path><path d="M393.94 555.1L399.85 546.44L389.11 546.69L382.38 537.99L379.81 548.27L369.74 551.56L378.89 557.66L379.4 568.39L387.62 561.88L398.01 565.22L393.94 555.1Z" id="c13jIAIT6w"></path><path d="M402.52 85.85L412.77 83.67L408.48 93.51L413.98 103.03L403.5 101.52L396.64 109.6L394.45 98.82L384.72 94.29L393.85 89.14L394.69 78.26L402.52 85.85Z" id="a44pQYeT6h"></path><path d="M392.75 413.16L402.22 408.66L400.31 419.23L407.86 427.23L397.31 428.18L392.5 437.62L387.89 427.64L377.37 425.47L385.07 418.35L383.38 407.58L392.75 413.16Z" id="a38XWiyCiB"></path><path d="M515.25 615.9L521.15 607.23L524.85 617.3L535.41 620.38L526.79 626.54L527.43 637.11L518.39 630.84L508.23 634.3L511.26 624.26L504.34 615.83L515.25 615.9Z" id="d50ukeWG0"></path><path d="M223.77 625.3L229.92 616.8L219.18 616.75L212.69 607.87L209.83 618.07L199.67 621.07L208.65 627.43L208.86 638.17L217.26 631.9L227.55 635.53L223.77 625.3Z" id="aZ8zYSClw"></path><path d="M319.64 34.87L330 36.46L322.5 44.15L324.27 55L315 49.87L305.73 55L307.5 44.15L300 36.46L310.37 34.87L315 25L319.64 34.87Z" id="d4rpQ71PBj"></path><path d="M585.68 41.34L594.96 36.46L593.5 47.09L601.37 54.77L590.87 56.16L586.46 65.79L581.43 56.01L570.83 54.29L578.23 46.85L576.08 36.16L585.68 41.34Z" id="d126zYsxro"></path></defs><g><g><g><g><use xlink:href="#afBceAq91" opacity="1" fill-opacity="0" stroke="#e7cd9d" stroke-width="3" stroke-opacity="1"></use></g></g><g><g><use xlink:href="#d1lycUsEgn" opacity="1" fill-opacity="0" stroke="#e7cd9d" stroke-width="3" stroke-opacity="1"></use></g></g><g><g><use xlink:href="#afA6Ao6c9" opacity="1" fill-opacity="0" stroke="#e7cd9d" stroke-width="3" stroke-opacity="1"></use></g></g><g><g><use xlink:href="#cYutnaWPa" opacity="1" fill-opacity="0" stroke="#e7cd9d" stroke-width="3" stroke-opacity="1"></use></g></g><g><g><use xlink:href="#amNhEJfgy" opacity="1" fill-opacity="0" stroke="#e7cd9d" stroke-width="3" stroke-opacity="1"></use></g></g><g><g><use xlink:href="#emNUpX1wS" opacity="1" fill-opacity="0" stroke="#e7cd9d" stroke-width="3" stroke-opacity="1"></use></g></g><g><g><use xlink:href="#chicLLbQV" opacity="1" fill-opacity="0" stroke="#e7cd9d" stroke-width="3" stroke-opacity="1"></use></g></g><g><g><use xlink:href="#c14DQeqzGo" opacity="1" fill-opacity="0" stroke="#e7cd9d" stroke-width="3" stroke-opacity="1"></use></g></g><g><g><use xlink:href="#a5v613AYmO" opacity="1" fill-opacity="0" stroke="#e7cd9d" stroke-width="3" stroke-opacity="1"></use></g></g><g><g><use xlink:href="#c18KoED2e0" opacity="1" fill-opacity="0" stroke="#e7cd9d" stroke-width="3" stroke-opacity="1"></use></g></g><g><g><use xlink:href="#cyCEufog1" opacity="1" fill-opacity="0" stroke="#e7cd9d" stroke-width="3" stroke-opacity="1"></use></g></g><g><g><use xlink:href="#c13jIAIT6w" opacity="1" fill-opacity="0" stroke="#e7cd9d" stroke-width="3" stroke-opacity="1"></use></g></g><g><g><use xlink:href="#a44pQYeT6h" opacity="1" fill-opacity="0" stroke="#e7cd9d" stroke-width="3" stroke-opacity="1"></use></g></g><g><g><use xlink:href="#a38XWiyCiB" opacity="1" fill-opacity="0" stroke="#e7cd9d" stroke-width="3" stroke-opacity="1"></use></g></g><g><g><use xlink:href="#d50ukeWG0" opacity="1" fill-opacity="0" stroke="#e7cd9d" stroke-width="3" stroke-opacity="1"></use></g></g><g><g><use xlink:href="#aZ8zYSClw" opacity="1" fill-opacity="0" stroke="#e7cd9d" stroke-width="3" stroke-opacity="1"></use></g></g><g><g><use xlink:href="#d4rpQ71PBj" opacity="1" fill-opacity="0" stroke="#e7cd9d" stroke-width="3" stroke-opacity="1"></use></g></g><g><g><use xlink:href="#d126zYsxro" opacity="1" fill-opacity="0" stroke="#e7cd9d" stroke-width="3" stroke-opacity="1"></use></g></g></g></g></svg>