<?xml version="1.0" encoding="UTF-8" standalone="no"?>
<!DOCTYPE svg PUBLIC "-//W3C//DTD SVG 1.1//EN" "http://www.w3.org/Graphics/SVG/1.1/DTD/svg11.dtd">
<svg version="1.1" xmlns="http://www.w3.org/2000/svg" xmlns:xlink="http://www.w3.org/1999/xlink" preserveAspectRatio="xMidYMid meet" viewBox="0 0 640 640" width="640" height="640"><defs><path d="M0 549.41L640 549.41L640 400.46C554.44 397.24 454.44 411.03 340 441.83C225.56 472.64 112.22 486.43 0 483.21L0 549.41Z" id="c7Uy1lSuV"></path><path d="M640 640L0 640L0 440.61C85.56 436.3 185.56 454.77 300 496C414.44 537.23 527.78 555.69 640 551.38L640 640Z" id="c4K5wJ3bFN"></path><path d="M0 640L640 640L640 510.98C554.44 508.2 454.44 520.14 340 546.82C225.56 573.5 112.22 585.45 0 582.66L0 640Z" id="h2EUMcZC2s"></path></defs><g><g><g><use xlink:href="#c7Uy1lSuV" opacity="1" fill="#282828" fill-opacity="1"></use></g><g><use xlink:href="#c4K5wJ3bFN" opacity="1" fill="#303030" fill-opacity="1"></use></g><g><use xlink:href="#h2EUMcZC2s" opacity="1" fill="#202020" fill-opacity="1"></use></g></g></g></svg>